M48
;DRILL file {KiCad 4.0.7} date 08/21/18 18:23:44
;FORMAT={3:3/ absolute / metric / suppress leading zeros}
FMAT,2
METRIC,TZ
T1C0.300
T2C0.500
T3C1.000
T4C1.400
T5C1.520
T6C0.500
T7C3.000
%
G90
G05
M71
T1
X94615Y-34925
X95223Y-36853
X97021Y-25933
X97155Y-34925
X99814Y-25320
X104013Y-25400
X105049Y-24609
X105410Y-34925
X107725Y-25400
X107950Y-22033
X112582Y-24308
X113018Y-29199
X115577Y-29214
X115757Y-23212
X117471Y-21492
X150137Y-32303
X152042Y-26588
X153952Y-59455
X155222Y-53104
T2
X92075Y-36195
X96520Y-30480
X104177Y-33678
X112395Y-34290
X113981Y-28551
X117475Y-28575
X121666Y-26924
X129540Y-26035
X145062Y-49930
X150142Y-49930
X155217Y-35097
X160297Y-35478
T3
X86360Y-17780
X86360Y-20320
X88900Y-17780
X88900Y-20320
X91440Y-17780
X91440Y-20320
X93345Y-43180
X93345Y-45720
X93345Y-48260
X93345Y-50800
X93345Y-53340
X93980Y-17780
X93980Y-20320
X96520Y-17780
X96520Y-20320
X99060Y-17780
X99060Y-20320
X101600Y-17780
X101600Y-20320
X104140Y-17780
X104140Y-20320
X106680Y-17780
X106680Y-20320
X109220Y-17780
X109220Y-20320
X111760Y-17780
X111760Y-20320
X114300Y-17780
X114300Y-20320
X116840Y-17780
X116840Y-20320
X118745Y-38100
X118745Y-40640
X119380Y-17780
X119380Y-20320
X119380Y-47625
X119380Y-50165
X119380Y-52705
X119380Y-55245
X121285Y-38100
X121285Y-40640
X121920Y-17780
X121920Y-20320
X123825Y-38100
X123825Y-40640
X124460Y-17780
X124460Y-20320
X124460Y-47625
X124460Y-50165
X124460Y-52705
X124460Y-55245
X126365Y-38100
X126365Y-40640
X127000Y-17780
X127000Y-20320
X128905Y-38100
X128905Y-40640
X129540Y-17780
X129540Y-20320
X129540Y-47625
X129540Y-50165
X129540Y-52705
X129540Y-55245
X131445Y-38100
X131445Y-40640
X132080Y-17780
X132080Y-20320
X133985Y-38100
X133985Y-40640
X134620Y-17780
X134620Y-20320
X134620Y-47625
X134620Y-50165
X134620Y-52705
X134620Y-55245
X136525Y-38100
X136525Y-40640
X139700Y-47625
X139700Y-50165
X139700Y-52705
X139700Y-55245
X145057Y-19603
X145057Y-22143
X145057Y-24683
X145057Y-27223
X145057Y-29763
X145057Y-32303
X147597Y-19603
X147597Y-22143
X147597Y-24683
X147597Y-27223
X147597Y-29763
X147597Y-32303
X147602Y-60725
X147602Y-63265
X147602Y-65805
X151412Y-60725
X151412Y-63265
X151412Y-65805
X153947Y-19603
X153947Y-22143
X153947Y-24683
X157757Y-19603
X157757Y-22143
X157757Y-24683
X157762Y-53105
X157762Y-55645
X157762Y-58185
X157762Y-60725
X157762Y-63265
X157762Y-65805
X160302Y-53105
X160302Y-55645
X160302Y-58185
X160302Y-60725
X160302Y-63265
X160302Y-65805
T4
X84455Y-27940
X84455Y-35560
X85725Y-44450
X85725Y-52070
T5
X87630Y-63500
X92710Y-63500
X97790Y-63500
X102870Y-63500
X107950Y-63500
X113030Y-63500
X118110Y-63500
X123190Y-63500
X128270Y-63500
X133350Y-63500
T6
X142875Y-19749
X142875Y-20749
X142875Y-21749
X142875Y-22749
X142875Y-23749
X142875Y-37227
X142875Y-38227
X142875Y-39227
X142875Y-40227
X142875Y-41227
X142875Y-44260
X142875Y-45260
X142875Y-46260
X142875Y-47260
X142875Y-48260
X142875Y-61738
X142875Y-62738
X142875Y-63738
X142875Y-64738
X142875Y-65738
X145050Y-42672
X146050Y-42672
X147050Y-42672
X148050Y-42672
X149050Y-42672
X156353Y-42672
X157353Y-42672
X158353Y-42672
X159353Y-42672
X160353Y-42672
T7
X81490Y-19050
X81490Y-68050
X139490Y-19050
X139490Y-68050
T0
M30
