G04 #@! TF.FileFunction,Soldermask,Bot*
%FSLAX46Y46*%
G04 Gerber Fmt 4.6, Leading zero omitted, Abs format (unit mm)*
G04 Created by KiCad (PCBNEW 4.0.7) date 08/21/18 18:23:19*
%MOMM*%
%LPD*%
G01*
G04 APERTURE LIST*
%ADD10C,0.100000*%
%ADD11C,0.900000*%
%ADD12R,2.100000X2.100000*%
%ADD13C,2.100000*%
%ADD14O,2.100000X2.100000*%
%ADD15C,3.400000*%
%ADD16R,4.000000X2.500000*%
%ADD17O,4.000000X2.500000*%
%ADD18R,3.400000X3.400000*%
G04 APERTURE END LIST*
D10*
D11*
X142875000Y-44260000D03*
X142875000Y-45260000D03*
X142875000Y-46260000D03*
X142875000Y-47260000D03*
X142875000Y-48260000D03*
X142875000Y-61738000D03*
X142875000Y-62738000D03*
X142875000Y-63738000D03*
X142875000Y-64738000D03*
X142875000Y-65738000D03*
X145050000Y-42672000D03*
X146050000Y-42672000D03*
X147050000Y-42672000D03*
X148050000Y-42672000D03*
X149050000Y-42672000D03*
X156353000Y-42672000D03*
X157353000Y-42672000D03*
X158353000Y-42672000D03*
X159353000Y-42672000D03*
X160353000Y-42672000D03*
X142875000Y-37227000D03*
X142875000Y-38227000D03*
X142875000Y-39227000D03*
X142875000Y-40227000D03*
X142875000Y-41227000D03*
D12*
X136525000Y-38100000D03*
D13*
X136525000Y-40640000D03*
X133985000Y-38100000D03*
X133985000Y-40640000D03*
X131445000Y-38100000D03*
X131445000Y-40640000D03*
X128905000Y-38100000D03*
X128905000Y-40640000D03*
X126365000Y-38100000D03*
X126365000Y-40640000D03*
X123825000Y-38100000D03*
X123825000Y-40640000D03*
X121285000Y-38100000D03*
X121285000Y-40640000D03*
X118745000Y-38100000D03*
X118745000Y-40640000D03*
D12*
X119380000Y-47625000D03*
D14*
X119380000Y-50165000D03*
X119380000Y-52705000D03*
X119380000Y-55245000D03*
D12*
X124460000Y-47625000D03*
D14*
X124460000Y-50165000D03*
X124460000Y-52705000D03*
X124460000Y-55245000D03*
D12*
X129540000Y-47625000D03*
D14*
X129540000Y-50165000D03*
X129540000Y-52705000D03*
X129540000Y-55245000D03*
D12*
X93345000Y-53340000D03*
D14*
X93345000Y-50800000D03*
X93345000Y-48260000D03*
X93345000Y-45720000D03*
X93345000Y-43180000D03*
D12*
X139700000Y-47625000D03*
D14*
X139700000Y-50165000D03*
X139700000Y-52705000D03*
X139700000Y-55245000D03*
D12*
X134620000Y-47625000D03*
D14*
X134620000Y-50165000D03*
X134620000Y-52705000D03*
X134620000Y-55245000D03*
D12*
X86360000Y-20320000D03*
D14*
X86360000Y-17780000D03*
X88900000Y-20320000D03*
X88900000Y-17780000D03*
X91440000Y-20320000D03*
X91440000Y-17780000D03*
X93980000Y-20320000D03*
X93980000Y-17780000D03*
X96520000Y-20320000D03*
X96520000Y-17780000D03*
X99060000Y-20320000D03*
X99060000Y-17780000D03*
X101600000Y-20320000D03*
X101600000Y-17780000D03*
X104140000Y-20320000D03*
X104140000Y-17780000D03*
X106680000Y-20320000D03*
X106680000Y-17780000D03*
X109220000Y-20320000D03*
X109220000Y-17780000D03*
X111760000Y-20320000D03*
X111760000Y-17780000D03*
X114300000Y-20320000D03*
X114300000Y-17780000D03*
X116840000Y-20320000D03*
X116840000Y-17780000D03*
X119380000Y-20320000D03*
X119380000Y-17780000D03*
X121920000Y-20320000D03*
X121920000Y-17780000D03*
X124460000Y-20320000D03*
X124460000Y-17780000D03*
X127000000Y-20320000D03*
X127000000Y-17780000D03*
X129540000Y-20320000D03*
X129540000Y-17780000D03*
X132080000Y-20320000D03*
X132080000Y-17780000D03*
X134620000Y-20320000D03*
X134620000Y-17780000D03*
D15*
X139490000Y-19050000D03*
X81490000Y-19050000D03*
X81490000Y-68050000D03*
X139490000Y-68050000D03*
D16*
X85725000Y-44450000D03*
D17*
X85725000Y-52070000D03*
D18*
X87630000Y-63500000D03*
D15*
X92710000Y-63500000D03*
D18*
X97790000Y-63500000D03*
D15*
X102870000Y-63500000D03*
D18*
X107950000Y-63500000D03*
D15*
X113030000Y-63500000D03*
D18*
X118110000Y-63500000D03*
D15*
X123190000Y-63500000D03*
D18*
X128270000Y-63500000D03*
D15*
X133350000Y-63500000D03*
D12*
X157761521Y-55644537D03*
D14*
X160301521Y-55644537D03*
X157761521Y-58184537D03*
X160301521Y-58184537D03*
X157761521Y-60724537D03*
X160301521Y-60724537D03*
X157761521Y-63264537D03*
X160301521Y-63264537D03*
X157761521Y-65804537D03*
X160301521Y-65804537D03*
D12*
X151411521Y-60724537D03*
D14*
X151411521Y-63264537D03*
X151411521Y-65804537D03*
D12*
X147601521Y-60724537D03*
D14*
X147601521Y-63264537D03*
X147601521Y-65804537D03*
D12*
X147596947Y-29762725D03*
D14*
X145056947Y-29762725D03*
X147596947Y-27222725D03*
X145056947Y-27222725D03*
X147596947Y-24682725D03*
X145056947Y-24682725D03*
X147596947Y-22142725D03*
X145056947Y-22142725D03*
X147596947Y-19602725D03*
X145056947Y-19602725D03*
D12*
X153946947Y-24682725D03*
D14*
X153946947Y-22142725D03*
X153946947Y-19602725D03*
D12*
X157756947Y-24682725D03*
D14*
X157756947Y-22142725D03*
X157756947Y-19602725D03*
D12*
X157761521Y-53104537D03*
D14*
X160301521Y-53104537D03*
D12*
X147596947Y-32302725D03*
D14*
X145056947Y-32302725D03*
D16*
X84455000Y-27940000D03*
D17*
X84455000Y-35560000D03*
D11*
X142875000Y-19749000D03*
X142875000Y-20749000D03*
X142875000Y-21749000D03*
X142875000Y-22749000D03*
X142875000Y-23749000D03*
M02*
